<?xml version="1.0" encoding="UTF-8"?>
<svg id="Layer_2" data-name="Layer 2" xmlns="http://www.w3.org/2000/svg" viewBox="0 0 320.83 84.84">
  <defs>
    <style>
      .cls-1 {
        fill: #fff;
      }
    </style>
  </defs>
  <g id="Layer_1-2" data-name="Layer 1">
    <path class="cls-1" d="M42.27,24.55c5.52,1.48,8.78,7.2,7.29,12.77-1.49,5.57-7.18,8.89-12.7,7.42s-8.78-7.2-7.29-12.77,7.18-8.89,12.7-7.42ZM16.15,65.91l11.55-43.11c1.62-6.06,5.66-4.97,9.7-3.89l12.11,3.25,4.32-16.14-14.13-3.79C29.61-.47,17.5-3.72,13.17,12.42L0,61.59l16.15,4.33Z"/>
    <path class="cls-1" d="M72.11,63.95h-16.72v-24.9c0-6.23,3.55-6.21,6.27-6.23h4.18c2.09,0,6.27,0,6.27,6.23v24.9Z"/>
    <path class="cls-1" d="M128.58,68.12c0,16.72-12.54,16.72-22.99,16.72h-14.63v-16.72h12.54c3.7,0,7.4,0,8.2-4.35-2.19.17-4.29.17-6.11.17h-4.18c-10.45,0-22.99,0-22.98-16.72h0c0-2.49,0-11.36,0-12.54,0-16.72,14.63-16.72,22.98-16.72h4.18c10.45,0,22.99,0,22.98,16.72h0v33.44ZM111.86,41.02v-.1c0-6.23-4.18-6.23-6.27-6.23h-4.18c-2.72.01-6.27,0-6.27,6.23v.09c0,6.22,4.18,6.22,6.27,6.22h4.18c2.72-.01,6.26,0,6.27-6.21Z"/>
    <path class="cls-1" d="M182.91,47.23c0,16.72-14.63,16.72-22.98,16.72h-4.18c-10.45,0-22.99,0-22.98-16.72h0V1.25h16.72v16.9c2.25-.18,4.41-.18,6.27-.18h4.18c10.45,0,22.99,0,22.98,16.72h0c0,2.49,0,11.36,0,12.54ZM166.19,40.96v-.04c0-6.23-4.18-6.23-6.27-6.23h-4.18c-2.72.01-6.27,0-6.27,6.23v.09c0,6.22,4.18,6.22,6.27,6.22h4.18c2.72-.01,6.27,0,6.27-6.22v-.04Z"/>
    <path class="cls-1" d="M212.16,63.95h-2.09c-10.45,0-22.99,0-22.99-16.72V1.25h16.72v39.7c0,6.27,4.18,6.27,8.36,6.27v16.72Z"/>
    <path class="cls-1" d="M266.49,34.69c0,2.49,0,11.36,0,12.54,0,16.72-14.62,16.72-22.98,16.72h-4.18c-10.45,0-22.99,0-22.98-16.72h0c0-2.49,0-11.36,0-12.54,0-16.72,14.62-16.72,22.98-16.72h4.18c10.45,0,22.99,0,22.98,16.72h0ZM249.78,40.96v-.04c0-6.23-4.18-6.23-6.27-6.23h-4.18c-2.72.01-6.27,0-6.27,6.23v.09c0,6.22,4.18,6.22,6.27,6.22h4.18c2.72-.01,6.27,0,6.27-6.22v-.04Z"/>
    <path class="cls-1" d="M312.47,40.91v.09c0,6.22,4.18,6.22,6.27,6.22h2.09v16.72h-2.09c-10.45,0-22.99,0-22.98-16.72h0c0,16.72-14.63,16.72-22.98,16.72h-2.09v-16.72h2.09c2.72-.01,6.27,0,6.27-6.22v-.09c0-6.23-4.18-6.23-6.27-6.23h-2.09v-16.72h2.09c10.45,0,22.99,0,22.98,16.72h0c0-16.72,14.62-16.72,22.98-16.72h2.09v16.72h-2.09c-2.72.01-6.27,0-6.27,6.23Z"/>
  </g>
</svg>